# xmcd
#
# Track frame offsets: 
#        150
#        10475
#        30995
#        48847
#        69521
#        89179
#        108217
#        134090
#        162684
#        189335
#        205065
#
# Disc length: 3151 seconds
#
# Revision: 1
# Processed by: cddbd v1.5.2PL0 Copyright (c) Steve Scherf et al.
# Submitted via: ExactAudioCopy v1.0b3
#
DISCID=980c4d0b
DTITLE=Fruteland Jackson - Tell me what you say
DYEAR=2007
DGENRE=blues
TTITLE0=Tell me what you say
TTITLE1=My baby left me all alone in e minor
TTITLE2=It's all good
TTITLE3=Blues over Baghdad
TTITLE4=I won
TTITLE5=You are my Sunshine
TTITLE6=The I.R.S.
TTITLE7=A gambler's view
TTITLE8=Sitting on my Front Porch
TTITLE9=Happy birthday Blues
TTITLE10=My Grandfather's blues (He came up the Hardway)
EXTD=
EXTT0=
EXTT1=
EXTT2=
EXTT3=
EXTT4=
EXTT5=
EXTT6=
EXTT7=
EXTT8=
EXTT9=
EXTT10=
PLAYORDER=
